<?xml version="1.0" encoding="utf-8"?>
<!-- Generator: Adobe Illustrator 23.0.3, SVG Export Plug-In . SVG Version: 6.00 Build 0)  -->
<svg version="1.1" id="Capa_1" xmlns="http://www.w3.org/2000/svg" xmlns:xlink="http://www.w3.org/1999/xlink" x="0px" y="0px"
	 viewBox="0 0 1200 1200" enable-background="new 0 0 1200 1200" xml:space="preserve">
<g>
	<path fill="#59AFC6" d="M58.542,147.391C58.542,93.689,102.232,50,155.933,50h887.657c53.702,0,97.391,43.689,97.391,97.391
		v887.657c0,53.702-43.689,97.391-97.391,97.391H155.933c-53.702,0-97.391-43.689-97.391-97.391V147.391z"/>
	<path fill="#9AE3F4" d="M252.855,380.684c1.012,0.285,2.032,0.508,3.055,0.694c-1.341,6.348-2.416,12.87-1.289,19.505
		c1.337,7.859,5.525,14.54,9.577,20.999c1.623,2.582,3.297,5.254,4.721,7.911c4.199,7.833,6.802,19.321,0.308,25.91
		c-5.675,5.773-16.036,4.228-21.771-0.764c-5.637-4.9-9.099-13.243-9.747-23.486c-0.349-5.536,0.026-11.012,0.424-16.808
		c0.093-1.352,0.179-2.732,0.263-4.11C246.778,402.916,252.22,392.016,252.855,380.684z M278.929,382.93
		c-0.045,2.202-0.24,4.406-0.629,6.591c-0.118,0.657-0.248,1.323-0.38,1.992c-0.663,3.346-1.288,6.508-0.13,8.934
		c1.292,2.708,4.826,3.763,8.024,3.338c-0.785-4.237-1.819-8.427-3.211-12.55C281.595,388.248,280.318,385.53,278.929,382.93z
		 M102.772,379.448c-3.538-6.773-4.448-14.526-3.75-22.198c-1.378,2.284-2.644,4.668-3.782,7.155
		c-7.762,16.957-4.41,40.123,11.525,49.811c8.769,5.331,21.356,7.387,24.452,17.17c2.864,9.048-4.823,17.723-11.832,24.122
		c-0.94,0.858-1.885,1.717-2.835,2.572l5.013,9.655c3.974,7.649,8.865,15.918,16.632,17.235c4.539,0.772,8.165-1.329,10.399-3.228
		c4.709-4.006,7.842-10.986,7.796-17.373c-0.061-8.591-3.473-16.641-7.087-25.163c-1.187-2.801-2.375-5.603-3.438-8.419
		c-5.003-13.258-7.231-27.516-6.818-41.702c-2.517,2.023-5.351,3.565-8.55,4.397C119.676,396.295,107.951,389.36,102.772,379.448z
		 M315.993,526.432c-7.021,9.321-14.222,18.597-21.253,27.594c-3.796,4.858-16.244,16.46-18.813,23.466
		c5.157,1.414,10.312,2.842,15.465,4.286c1.619-1.083,3.072-2.082,4.18-2.738c16.24-9.62,33.031-19.566,42.905-34.807
		c1.814-2.801,3.417-5.845,4.938-8.929c-9.323-0.858-18.222-3.063-26.283-8.082C316.737,526.975,316.379,526.69,315.993,526.432z
		 M181.499,387.926c1.821-7.777,7.329-14.062,11.37-20.951c4.041-6.889,6.564-15.906,2.248-22.626
		c-0.409-0.637-0.873-1.207-1.363-1.741c-7.235-1.049-14.497-1.689-21.776-1.984c-1.736,0.873-3.358,1.947-4.768,3.215
		c-7.674,6.902-11.142,17.136-15.312,26.602c0.338,5.018,1.174,10.333,2.613,15.992c1.692,6.64,3.966,13.301,6.165,19.739
		c2.6,7.609,5.286,15.474,7.096,23.518c3.752,16.67,3.732,34.291-0.066,50.958l-0.562,2.424c-2.055,8.785-4.179,17.866,0.386,24.273
		c2.052,2.879,5.43,4.706,9.511,5.139c5.07,0.539,10.462-1.161,14.047-4.436c6.268-5.727,9.142-15.667,7.689-26.596
		c-1.092-8.223-4.283-16.281-7.367-24.074c-0.7-1.767-1.398-3.533-2.075-5.303c-3.669-9.577-7.217-20.898-5.732-32.233
		c0.481-3.678,1.56-7.16,3.085-10.325C182.012,403.364,179.744,395.424,181.499,387.926z M354.793,578.374
		c-7.279,7.804-17.478,10.786-27.45,13.537c45.97,12.908,91.873,25.038,137.885,30.152c62.573,6.955,125.496,5.077,188.502,0.134
		c-15.257-7.935-32.191-13.157-49.127-16.177c-48.839-8.706-103.547-2.897-143.376-32.471c-14.596-10.838-26.307-25.993-43-33.194
		c-14.162-6.109-30.052-5.729-45.908-5.082c-2.646,5.037-4.221,10.915-5.832,17.03C364.045,561.577,361.52,571.166,354.793,578.374z
		 M201.178,419.594c-1.855,15.857,2.508,32.478,12.656,44.936c2.355,2.894,5.07,5.655,7.695,8.326
		c3.522,3.588,7.168,7.297,10.208,11.543c6.701,9.355,8.551,19.774,4.954,27.87c-4.139,9.312-13.998,13.546-22.696,17.281
		l-2.435,1.052c-3.784,1.656-11.206,5.481-14.753,11.159c13.198,7.582,25.927,15.963,38.12,25.071
		c2.884,0.698,5.768,1.404,8.651,2.127l18.51-32.806c6.364-11.275,12.26-23.198,8.511-34.161
		c-3.444-10.07-13.456-15.226-24.057-20.682c-8.332-4.291-16.947-8.727-23.008-15.895c-8.566-10.13-11.45-25.656-8.119-43.715
		c0.048-0.263,0.111-0.523,0.161-0.786C210.711,421.448,205.795,421.042,201.178,419.594z M121.006,510.631
		c-1.468-2.109-2.951-4.201-4.418-6.257c-4.753-6.663-9.666-13.554-13.693-20.935c-2.181-3.997-3.856-7.994-5.153-12.084
		c-0.467,0.208-0.921,0.441-1.397,0.632c-8.81,3.543-19.693,3.522-27.015-2.525c-5.848-4.829-8.273-12.239-10.787-19.613v54.577
		C79.287,503.141,100.364,505.542,121.006,510.631z M831.065,332.11c19.848,18.373,51.259,4.411,78.295,3.636
		c48.019-1.377,87.307,42.094,135.206,45.756c32.116,2.456,62.483-13.348,90.806-28.686c1.863-1.009,3.736-2.031,5.61-3.062V149.287
		c-14.869-9.088-31.871-11.635-50.628-1.718c-21.846,11.55-36.025,33.319-49.569,53.989c-13.544,20.669-28.535,42.118-51.041,52.322
		c-22.657,10.272-48.787,7.306-73.555,4.981c-24.767-2.325-51.511-3.352-72.552,9.92C822.597,282.052,812.81,315.211,831.065,332.11
		z M304.007,157.093c16.242,6.139,33.928,6.908,51.253,8.048c9.156,0.603,18.427,1.393,27.435,3.121
		c3.078-1.487,6.601-2.059,9.955-1.375c-3.98-5.062-1.54-13.003,3.439-17.086c4.98-4.083,11.638-5.311,17.985-6.4
		c7.644-1.312,15.287-2.625,22.931-3.937c10.47-1.797,20.94-3.595,31.41-5.392c6.439-1.105,13.115-2.202,19.429-0.531
		s12.18,6.928,12.348,13.458c0.262,10.212-12.296,16.348-14.554,26.31c-1.997,8.812,5.357,17.715,14.07,20.11
		c16.908,4.648,42.219-19.755,56.589-9.14c6.632-3.394,13.839-5.466,21.275-5.464c10.22,0.003,21.518,3.594,29.984-2.131
		c4.373-2.957,7.06-7.951,11.464-10.862c7.068-4.671,16.95-2.671,23.696,2.454c0.719,0.546,1.398,1.134,2.064,1.734
		c30.766-7.355,63.467,5.825,95.467,4.806c31.613-1.006,62.437-16.88,81.617-42.03C839.59,109.541,847.015,78.804,842.205,50
		H275.934c-4.523,4.115-8.856,8.496-12.935,13.218c-14.01,16.216-24.659,36.217-25.763,57.618
		c-0.383,7.427,0.588,14.995,2.764,22.156c2.234-1.105,4.562-2.022,7.041-2.638C266.644,135.49,285.114,149.952,304.007,157.093z
		 M1088.722,942.142c-33.523-15.929-73.43-17.145-111.429-14.955c-37.999,2.19-76.214,7.405-113.961,2.967
		c-37.746-4.438-76.235-20.591-93.922-50.327c0.434,29.673,29.228,54.203,61.072,63.806c31.845,9.603,66.438,7.683,100.074,6.658
		c33.636-1.025,68.771-0.757,98.845,12.566c24.95,11.053,43.964,31.288,53.274,54.444c10.713-8.837,10.658-29.134,25.029-35.342
		c7.256-3.132,15.393-3.703,23.129-2.168C1121.687,964.087,1106.417,950.551,1088.722,942.142z M573.173,902.167
		c-37.612-28.928-89.598-28.506-136.785-23.516c-36.462,3.856-74.28,9.436-109.925,3.68c1.024,0.87,2.088,1.697,3.239,2.434
		c11.017,7.056,34.067,5.988,45.839,5.087c16.294-1.246,31.938-0.158,38.957,1.753c10.888,2.965,21.631,7.23,31.384,12.879
		c32.337-1.328,66.056,1.77,93.625,18.594c23.487,14.334,40.03,36.988,55.921,59.748c8.963,0.638,18.002,1.476,19.48,1.721
		c5.497,0.909,10.604,1.94,15.392,3.29C615.043,955.913,600.668,923.314,573.173,902.167z M61.087,670.351
		c1.186,0.633,2.381,1.248,3.54,1.931c6.774,3.99,12.895,9.149,18.84,14.461c0.854,0.388,1.705,0.788,2.569,1.136
		c2.409,0.971,4.853,1.821,7.316,2.603c-0.47-6.788,0.98-13.544,5.183-18.813c-2.468,7.647,0.849,15.524,6.204,21.867
		c16.762,3.791,34.23,5.202,50.789,9.987c4.402,1.272,8.698,2.867,12.925,4.624c-0.086-1.386-0.174-2.774-0.259-4.158
		c-0.363-4.72-1.739-12.931-2.992-22.035c-20.628-4.967-43.189-5.91-64.932-10.253c-15.624-3.121-31.669-10.433-41.729-22.195
		v17.803C59.349,668.349,60.205,669.359,61.087,670.351z M755.647,905.307c-17.34,18.15-13.766,45.882,3.406,64.139
		c17.172,18.257,45.066,28.014,72.921,31.341c27.855,3.327,56.187,0.973,84.258-0.754c28.071-1.727,56.729-2.782,83.968,3.028
		c-19.487-15.979-48.458-21.485-76.013-22.521c-27.556-1.036-55.31,1.663-82.684-1.117c-24.626-2.501-48.319-10.313-65.37-25.46
		C766.094,945.045,743.618,917.899,755.647,905.307z M377.861,774.154c32.074,6.112,66.931,3.482,100.118-0.051
		c33.186-3.533,66.933-7.925,100.326-5.139c34.011,2.838,63.801,14.182,76.859,33.031c19.099-23.394-19.484-47.666-55.875-53.323
		c-23.975-3.727-49.379-2.041-73.811,0.468c-24.432,2.51-48.914,5.832-73.703,5.307c-62.66-1.328-115.639-27.735-169.84-47.42
		c-10.176-3.696-20.659-7.412-31.345-10.807c-0.031,0.576-0.073,1.156-0.096,1.728c-0.126,3.149,0.032,7.302,0.431,12.287
		c6.839,3.18,13.434,6.614,19.724,10.301C305.645,741.048,331.101,765.243,377.861,774.154z M482.228,792.515
		c27.555,9.033,58.469,6.273,87.06,6.903c29.558,0.73,60.65,4.776,84.267,22.563C605.626,771.383,543.367,783.157,482.228,792.515z"
		/>
	<path fill="#008249" d="M1076.527,607.634L1076.527,607.634c5.522-4.188,11.486-7.476,17.719-9.969
		c14.708-5.884,30.956-7.216,46.736-4.565v38.128v214.576c-4.352-9.951-9.51-19.549-15.49-28.618
		c-0.139,21.751-8.47,43.352-22.971,59.564c-2.155-11.836,1.187-24.559,8.882-33.808c-17.341,3.454-32.837,15.199-40.848,30.961
		c10.809-19.002,5.467-45.599-11.842-58.954c4.002,25.163-8.999,52.162-31.167,64.723c-2.015-13.546,0.857-27.765,7.97-39.468
		c-14.601,9.835-29.203,19.67-43.805,29.505c16.841-21.573,7.687-58.054-17.344-69.12c-0.027,23.806-9.475,47.473-25.849,64.754
		c-9.53-13.194-11.646-31.399-5.395-46.426c-9.789,15.216-19.579,30.432-29.368,45.649c-3.71-15.327-7.42-30.654-11.129-45.981
		c0.171,16.144-7.16,32.213-19.466,42.665c-11.93-15.601-13.304-38.511-3.327-55.427c-22.026,12.052-37.807,34.89-41.291,59.755
		c-2.926-14.047-5.853-28.094-8.779-42.14c-3.846,6.266-7.692,12.532-11.537,18.798c0.084-3.357-0.072-6.753-0.576-10.212
		c-0.374-2.571-1.731-4.104-3.456-4.829c-1.724-14.38-8.958-28.171-20.703-36.716c5.834,15.072,0.385,33.735-12.642,43.299
		c1.316-0.966-12.147-31.397-13.412-33.985c-7.524,9.455-12.733,23.562-14.404,38.176c-21.912-20.033-39.403-42.3-60.699-60.881
		c12.058-36.26,47.771-62.396,85.086-73.596c41.309-12.399,85.303-10.565,128.379-12.735c43.075-2.169,88.235-9.403,121.958-36.291
		c10.377-8.274,19.311-18.144,28.496-27.75c5.322-5.566,10.729-11.043,16.549-16.069
		C1074.019,609.595,1075.263,608.593,1076.527,607.634z M196.807,541.76c-1.294,2.071-2.087,4.381-1.98,6.932
		c0.187,4.43,2.98,8.416,5.94,12.635c0.787,1.121,1.571,2.239,2.303,3.363c8.79,13.456,11.393,30.714,6.963,46.162
		c-0.798,2.793-1.813,5.508-2.796,8.136c-1.389,3.718-2.701,7.228-3.435,10.888c-0.084,0.419-0.127,0.825-0.19,1.238
		c5.387,1.423,10.719,3.011,16.02,4.696l-0.007-0.057c-2.378-20.123,8.669-39.703,16.736-54.001l5.454-9.666
		c-2.275-1.78-4.573-3.526-6.887-5.255C222.734,557.722,210.005,549.342,196.807,541.76z M87.008,536.093
		c16.829,11.475,36.568,17.901,54.197,28.104c1.847,1.069,3.675,2.214,5.48,3.405c-4.615-16.573-10.478-32.78-19.44-47.504
		c-1.951-3.203-4.076-6.358-6.24-9.468c-20.642-5.089-41.719-7.49-62.463-6.206v2.181C66.024,518.161,75.607,528.32,87.008,536.093z
		 M342.037,689.684c-15.204-27.617-33.861-53.298-55.34-76.376c-11.182,10.523-19.723,23.836-25.696,38.044
		c27.345,11.685,54,25.381,80.83,38.234C341.9,689.619,341.968,689.651,342.037,689.684z M144.13,620.303
		c-10.875-7.404-22.286-14.168-33.467-21.059c-18.942-11.675-37.935-24.544-52.12-41.41v59.554
		C84.098,614.923,115.929,616.84,144.13,620.303z M1141.458,983.353v43.473c-5.384,7.007-8.908,15.279-9.61,24.45
		c-32.804-21.128-83.541-2.637-95.058,34.643c-17.433-27.677-54.145-41.535-85.518-32.281c-31.373,9.254-54.688,40.818-54.31,73.525
		c-20.834-31.8-67.944-40.401-100.596-22.557c-4.784,6.541-8.363,14.024-10.531,22.482c-0.07,0.519-0.189,1.027-0.358,1.526
		c-0.274,1.183-0.484,2.412-0.705,3.633H471.044c4.834-10.178,7.778-21.223,8.305-32.507c11.573,16.828,36.456,22.774,54.387,12.996
		c17.931-9.777,26.409-33.915,18.532-52.758c-7.878-18.843-31.013-29.764-50.567-23.87c5.319-18.425-3.663-39.96-20.499-49.144
		c-16.836-9.184-39.804-5.08-52.417,9.366c-23.992-37.918-82.493-47.916-117.717-20.118c-2.285-7.156-6.429-13.626-11.767-18.9
		c-6.998-28.752-14.779-62.949-22.036-97.097c3.331-7.513,8.033-14.31,14.335-19.577c0.806-0.673,1.643-1.299,2.485-1.918
		c0.488,0.365,0.991,0.71,1.469,1.087c14.364,11.323,18.149,31.688,30.91,42.521c1.024,0.87,2.088,1.697,3.239,2.434
		c11.017,7.056,34.067,5.988,45.839,5.087c16.294-1.246,31.938-0.158,38.957,1.753c10.888,2.965,21.631,7.23,31.384,12.879
		c19.105,11.066,34.333,27.547,38.878,50.69c30.76-18.241,75.793-4.799,91.522,27.318c-0.404-0.825,9.326-0.365,19.146,0.335
		c8.963,0.638,18.002,1.476,19.48,1.721c5.497,0.909,10.604,1.94,15.392,3.29c13.75,3.878,24.829,10.44,34.619,24.704
		c18.112,26.393,7.176,31.809,40.451,34.471c28.459,2.277,50.741,27.588,79.399,27.022c14.369-0.284,28.007-5.1,42.198-6.676
		c6.944-0.771,13.987-0.626,20.717,1.415c6.143,1.863,11.168,6.737,17.852,3.922c5.572-2.346,10.68-7.382,15.171-11.304
		c10.228-8.932,19.727-19.75,31.744-26.352c33.17-18.222,88.31-30.833,117.453,0c13.9-14.387,35.808-6.064,51.482-16.714
		c0.459-0.312,0.867-0.679,1.291-1.028c10.713-8.837,10.658-29.134,25.029-35.342c7.256-3.132,15.393-3.703,23.129-2.168
		c3.508,0.696,6.932,1.804,10.148,3.356C1141.137,983.221,1141.303,983.276,1141.458,983.353z M136.511,976.056
		c-5.804-10.93,0.829-32.267,2.193-43.709c3.544-29.723,7.776-63.422-28.177-73.488c-14.853-4.159-24.143,6.198-37.458,9.201
		c-5.387,1.215-9.903,1.467-14.051,1.17v165.629c0,53.702,43.689,97.391,97.391,97.391h32.09
		c-4.371-7.756-7.939-15.961-10.56-24.478c-8.876-28.844-7.233-59.731-5.504-89.861c0.563-9.804,1.125-19.608,1.688-29.412
		C158.833,989.215,143.406,989.04,136.511,976.056z M376.371,1082.483c-19.515-6.049-17.689-32.426-34.308-41.693
		c-6.952-3.872-13.677-4.911-20.347-5.372l28.878,76.154c2.66,7.011,4.897,13.889,4.038,20.677h103.095
		c-2.681-11.649-7.735-22.628-15.524-31.913C420.436,1074.385,400.634,1090.004,376.371,1082.483z M137.726,720.71
		c9.306,12.62,8.235,29.772,11.57,45.093c2.558,11.749,8.162,22.678,15.843,31.906c5.747-0.063,11.289,1.622,16.26,4.512
		c-7.068-25.291-10.004-52.117-11.925-78.741c-11.516-5.743-24.209-7.729-38.224-9.517
		C133.637,715.981,135.854,718.171,137.726,720.71z M129.851,761.852c-0.664-11.269-6.979-21.386-13.892-30.31
		c-6.913-8.924-14.721-17.393-19.272-27.723c-1.043-2.366-1.868-4.876-2.454-7.44c-3.594-3.117-7.148-6.403-10.765-9.635
		c-5.945-5.312-12.067-10.472-18.84-14.461c-1.159-0.683-2.354-1.297-3.54-1.931c-0.692-0.37-1.368-0.775-2.069-1.129v30.912v38.439
		c3.913,4.36,8.145,8.47,12.574,12.349c5.53,4.842,11.359,9.328,17.378,13.339c10.468,6.975,21.497,12.985,32.722,18.665
		C127.241,777.831,130.306,769.579,129.851,761.852z"/>
	<path fill="#F7C957" d="M1094.246,597.664c-6.233,2.494-12.197,5.782-17.719,9.969c-81.714-13.55-164.328-10.041-247.231-2.546
		c-0.794-5.069-1.241-10.233-1.241-15.489c0-63.411,59.673-114.815,133.282-114.815s133.281,51.405,133.281,114.815
		C1094.618,592.314,1094.468,594.998,1094.246,597.664z M753.312,412.396c-5.803,1.071-10.551,4.797-15.479,8.185
		c0.656,0.493,1.339,0.959,2.065,1.385c11.236,6.591,25.286,1.37,38.12-0.858c4.082-0.709,8.455-1.058,12.216,0.681
		s6.537,6.212,5.077,10.09c-0.519,1.379-1.472,2.467-2.626,3.373c2.378,2.173,3.74,5.471,2.626,8.432
		c-1.164,3.092-4.441,4.774-7.497,6.03c-19.118,7.86-40.501,10.117-60.839,6.421c-17.865-3.247-36.381-10.922-53.484-4.826
		c-6.52,2.324-12.239,6.52-18.733,8.913c-6.495,2.393-14.628,2.553-19.484-2.378c-5.709-5.797-4.119-15.027-5.418-23.222
		c-1.353,5.252-7.404,8.896-13.096,9.168c-6.549,0.313-12.807-2.39-19.151-4.045c-6.345-1.655-13.756-2.054-18.8,2.134
		c-2.691,2.235-4.124,5.283-4.813,8.653c0.165,1.081,0.358,2.147,0.571,3.186c1.272,6.22,2.744,13.052,1.342,19.005
		c0.942,6.157,1.037,12.36-2.409,17.323c-2.219,3.196-5.62,5.355-9.044,7.205c-12.279,6.634-26.101,10.389-40.049,10.881
		c-6.83,0.241-14.176-0.476-19.462-4.808c-4.27-3.5-6.544-8.83-10.038-13.106c-3.493-4.276-9.539-7.601-14.422-5.022
		c-3.662,1.934-5.102,6.309-7.114,9.928c-4.067,7.316-11.734,12.513-20.035,13.581c-4.254,0.548-8.616-0.01-12.643-1.484
		c-1.794,1.594-3.71,3.126-5.872,4.536c-12.866,8.387-27.148,10.797-41.73,14.416c-12.54,3.112-14.627,14.269-17.754,26.132
		c-2.441,9.275-4.966,18.864-11.693,26.072c-7.508,8.05-18.125,10.972-28.394,13.799c-3.136,0.862-6.381,1.755-9.419,2.773
		c-24.351,8.155-41.789,27.164-52.698,49.235c-2.302,0.487-4.339,2.07-5.126,5.054c-11.999,45.49-28.688,88.297-29.205,136.005
		c-0.037,3.444,1.887,5.622,4.35,6.569c-2.8,19.572-9.435,37.191-26.64,40.687c-29.538,6.003-72.001-21.633-80.339-49.774
		c-0.513-1.733-0.939-3.477-1.327-5.226c2.748-4.647,4.171-10.261,3.854-15.644c-0.51-8.654-4.362-16.622-9.249-23.899
		c-0.767-3.78-1.759-7.535-3.143-11.245c-4.472-11.992-11.591-22.632-17.494-33.798c12.783,8.353,28.747,15.576,37.761,27.8
		c9.306,12.62,8.234,29.772,11.57,45.093c4.357,20.014,17.502,37.688,34.82,48.53c0.049-0.86,0.099-1.721,0.148-2.581
		c-11.202-34.109-13.848-71.536-16.07-107.761c-0.885-11.506-7.799-43.663-4.243-59.299l-2.385-11.37
		c-15.588-12.998-33.534-23.372-50.905-34.079c-18.942-11.675-37.934-24.544-52.12-41.41c-1.569-1.83,0-11.885,0-14.208
		c0-8.891,0.381-16.972-1.33-25.689c13.973,8.549,27.725,17.82,42.16,25.568c13.714,7.361,28.347,12.886,41.833,20.692
		c1.847,1.069,3.675,2.214,5.48,3.405c-4.615-16.573-10.478-32.78-19.44-47.504c-3.274-5.375-7.026-10.638-10.658-15.725
		c-4.753-6.663-9.666-13.554-13.693-20.935c-2.934-5.377-5.01-10.742-6.358-16.363c-2.85,1.93-5.84,3.622-9.045,4.911
		c-8.81,3.543-19.693,3.522-27.015-2.525c-5.848-4.829-8.273-12.239-10.787-19.613V212.58c2.867-1.321,5.854-2.436,8.854-3.417
		v-11.294c4.57-2.107,9.441-3.734,14.193-5.028c17.937-4.882,40.002-10.651,55.016-5.177c0.879-0.971,1.831-1.867,2.847-2.667
		c1.045-5.656,4.293-11.167,8.864-14.741c8.506-6.651,19.855-8.193,30.634-8.833c10.779-0.64,21.929-0.691,31.797-5.075
		c16.743-7.437,27.273-26.257,45.054-30.67c19.593-4.863,38.054,9.592,56.937,16.73c16.233,6.136,33.911,6.904,51.228,8.044
		c9.151,0.602,18.417,1.393,27.421,3.119c0.653-0.315,1.334-0.566,2.021-0.796c0.775-1.107,1.656-2.137,2.68-2.976
		c1.056-0.865,2.199-1.58,3.386-2.214c-0.576-4.467,1.67-9.489,5.3-12.466c4.977-4.081,11.632-5.308,17.976-6.397
		c7.64-1.312,15.28-2.623,22.92-3.935c10.464-1.797,20.929-3.593,31.394-5.39c6.435-1.105,13.108-2.201,19.42-0.531
		c6.311,1.671,12.173,6.925,12.341,13.451c0.15,5.835-3.887,10.34-7.796,14.988c4.33,2.487,7.67,6.67,7.796,11.573
		c0.157,6.095-4.254,10.739-8.315,15.611c2.28,1.948,4.979,3.44,7.831,4.224c17.391,4.781,43.669-21.173,57.779-8.109
		c5.439-2.231,11.195-3.537,17.095-3.536c10.215,0.003,21.507,3.592,29.969-2.13c4.371-2.956,7.056-7.947,11.459-10.857
		c7.064-4.669,16.942-2.669,23.684,2.453c6.742,5.122,11.06,12.73,15.193,20.12c5.525,9.88,11.149,20.047,12.76,31.251
		c0.378,2.625,0.513,5.255,0.458,7.88c18.187-0.304,44.302,5.567,51.536,21.806c4.055,9.105,4.305,19.727,9.416,28.284
		c5.581,9.343,15.997,14.625,26.251,18.272c10.253,3.648,21.088,6.251,30.121,12.322c25.907,17.41,18.666,43.994,11.886,69.465
		c-5.746,21.585-3.516,55.712-36.218,48.215C764.324,412.914,758.766,411.39,753.312,412.396z M323.858,381.103
		c4.098-2.687,8.17-5.359,10.969-9.033c-2.595-1.026-5.106-2.284-7.509-3.817c-0.128,1.03-0.28,2.049-0.484,3.035
		C326.135,374.67,325.083,377.927,323.858,381.103z M311.11,411.668c-1.903,7.525-1.821,14.07,0.337,19.496
		c0.888,2.228,2.141,4.412,3.47,6.727c3.006,5.242,6.119,10.664,5.121,17.099c-0.994,6.415-5.804,10.909-10.047,14.871
		c-0.925,0.862-1.845,1.721-2.718,2.591c-4.121,4.107-6.96,10.398-4.11,13.966c3.358,4.199,11.508,1.453,16.073-0.559l52.427-23.107
		c-0.376-0.878-0.736-1.756-1.075-2.618c-2.24-5.693-4.479-11.386-6.72-17.079c-2.726-6.928-5.201-15.25-3.182-21.928
		c-0.606-2.847-0.896-5.689-0.655-8.373c-2.465,2.3-4.967,4.558-7.685,6.441c-9.439,6.538-22.658,8.234-32.504,2.326
		C316.031,419.233,313.023,415.697,311.11,411.668z M286.644,400.447c1.68,3.522,7.159,4.274,10.747,2.568
		c3.594-1.706,6.611-5.24,9.491-11.122c4.268-8.729,6.623-18.421,7.108-28.19c-3.595-2.284-6.566-5.599-7.888-9.495
		c-3.329,4.873-7.025,9.457-11.327,13.521c-2.377,2.246-4.985,4.304-7.753,6.123c0.952,5.153,1.061,10.46,0.132,15.669
		c-0.118,0.657-0.248,1.323-0.38,1.992C286.111,394.858,285.485,398.02,286.644,400.447z M165.245,464.368
		c-0.061-8.591-3.473-16.641-7.087-25.163c-1.187-2.801-2.375-5.603-3.438-8.419c-6.494-17.208-8.337-36.098-5.737-54.33
		c-4.227,7.787-10.103,14.846-18.483,17.025c-10.824,2.814-22.548-4.121-27.727-14.034c-1.043-1.996-1.805-4.094-2.423-6.233
		c1.149,10.683,6.127,20.646,15.246,26.19c8.764,5.328,21.345,7.383,24.44,17.162c2.392,7.558-2.585,14.85-8.372,20.777
		c-0.801,5.529-4.782,10.73-9.157,15.156l7.911,15.236c3.974,7.649,8.865,15.918,16.632,17.235
		c4.539,0.772,8.165-1.329,10.399-3.228C162.159,477.735,165.291,470.755,165.245,464.368z M199.94,508.049
		c6.268-5.727,9.142-15.667,7.689-26.596c-1.092-8.223-4.283-16.281-7.367-24.074c-0.7-1.767-1.398-3.533-2.075-5.303
		c-3.669-9.577-7.217-20.898-5.732-32.233c0.179-1.372,0.455-2.711,0.79-4.023c-8.84-6.116-14.193-17.439-11.746-27.894
		c1.659-7.087,6.371-12.941,10.254-19.137c0.951-2.269,2.135-4.445,3.454-6.566c2.452-5.954,3.288-12.612-0.091-17.874
		c-5.723-8.91-20.034-7.59-27.907-0.509c-0.898,0.808-1.724,1.674-2.515,2.567c-0.718,1.622-1.411,3.244-2.105,4.876
		c-2.904,9.784-2.685,21.545,0.774,35.152c1.692,6.64,3.966,13.301,6.165,19.739c2.6,7.609,5.286,15.474,7.096,23.518
		c3.752,16.67,3.732,34.291-0.066,50.958l-0.562,2.424c-2.055,8.785-4.179,17.866,0.386,24.273c2.052,2.879,5.43,4.706,9.511,5.139
		C190.962,513.023,196.354,511.323,199.94,508.049z M279.453,501.991c-3.444-10.07-13.456-15.226-24.057-20.682
		c-8.332-4.291-16.947-8.727-23.008-15.895c-8.566-10.13-11.45-25.656-8.119-43.715c0.182-0.984,0.397-1.961,0.604-2.941
		c-4.787,1.75-9.916,2.552-14.969,2.339c-1.417,15.4,2.956,31.367,12.783,43.432c2.355,2.894,5.07,5.655,7.695,8.326
		c3.522,3.588,7.168,7.297,10.208,11.543c6.701,9.355,8.551,19.774,4.954,27.87c-4.139,9.312-13.998,13.546-22.696,17.281
		l-2.435,1.052c-5.165,2.26-17.134,8.545-16.733,18.091c0.187,4.43,2.98,8.416,5.94,12.635c0.787,1.121,1.571,2.239,2.303,3.363
		c8.79,13.456,11.393,30.714,6.963,46.162c-0.798,2.793-1.813,5.508-2.796,8.136c-1.389,3.718-2.701,7.228-3.435,10.888
		c-1.352,6.756-0.035,12.817,3.522,16.206c1.934,1.842,5.159,2.675,8.021,2.087c1.228-0.256,3.424-1.012,4.352-3.205
		c0.879-2.081,0.522-4.721,0.147-7.514l-0.219-1.698c-2.378-20.123,8.669-39.703,16.736-54.001l25.728-45.6
		C277.306,524.877,283.203,512.954,279.453,501.991z M277.773,429.792c-1.424-2.657-3.098-5.329-4.721-7.911
		c-4.052-6.459-8.24-13.139-9.577-20.999c-1.101-6.484-0.097-12.859,1.2-19.07c-2.373,0.164-4.755,0.117-7.119-0.192
		c-1.833,3.895-4.233,7.521-7.091,10.739c-0.801,2.259-1.819,4.438-2.973,6.542c0.043,1.451,0.081,2.902,0.062,4.356
		c-0.049,3.825-0.311,7.669-0.568,11.387c-0.398,5.796-0.772,11.272-0.424,16.808c0.648,10.243,4.11,18.586,9.747,23.486
		c5.735,4.992,16.096,6.537,21.771,0.764C284.574,449.113,281.972,437.625,277.773,429.792z M420.942,486.426
		c-0.3-0.473-0.58-0.962-0.893-1.426c-3.445-5.104-8.372-9.841-14.461-10.515c-5.486,1.99-10.788,3.634-15.619,5.006l-1.502,0.427
		c-12.327,3.493-25.071,7.104-35.34,14.433c-9.355,6.669-16.523,16.338-23.457,25.685l-1.283,1.732
		c-8.099,10.897-16.586,21.757-24.794,32.259c-4.148,5.308-18.663,18.685-19.288,25.301c-1.558,16.523,14.195,3.221,20.12-0.287
		c16.24-9.62,33.031-19.566,42.905-34.807c2.859-4.415,5.222-9.421,7.508-14.263c4.26-9.024,8.663-18.353,16.635-24.982
		c8.28-6.885,18.719-9.465,28.815-11.958c3.793-0.937,7.715-1.908,11.399-3.084C414.853,488.934,417.941,487.752,420.942,486.426z
		 M473.428,367.679c-1.558,0.033-3.117,0.037-4.673-0.075c-9.397-0.674-18.45-3.856-27.81-4.92
		c-7.568-0.86-15.088-0.318-22.573,0.926c0.103,0.468,0.182,0.932,0.268,1.398c12.307,0.864,25.413,3.831,32.845,4.465
		c6.81,0.581,13.743,1.199,20.156,3.464C472.342,371.218,472.933,369.462,473.428,367.679z M568.643,292.672
		c3.711-1.11,7.706-1.729,11.484-2.314c1.389-0.215,2.81-0.499,4.231-0.822c-4.554-3.214-8.764-7-13.244-10.323
		C570.933,283.779,570.125,288.318,568.643,292.672z M522.955,329.529c-2.481,8.647-7.091,16.692-13.488,23.021
		c-5.628,5.567-12.576,9.715-20.065,12.27c1,3.13,2.509,5.845,5.026,7.691c5.943,4.361,14.99,1.43,19.719-4.049
		c5.6-6.49,7.009-15.716,7.612-23.031c0.167-1.997,0.285-4.009,0.406-6.018C522.359,336.152,522.565,332.838,522.955,329.529z
		 M542.05,291.816c5.335-6.614,10.308-13.197,13.131-20.448c-6.487-1.605-13.353-1.898-20.06-2.468
		c-1.012-0.086-2.03-0.186-3.049-0.297c-3.052,2.537-5.639,5.463-7.344,9.14c-0.175,0.379-0.314,0.764-0.466,1.148
		c0.306,2.196,0.568,4.385,0.7,6.552c0.31,5.1-0.221,10.221-1.408,15.188c0.564,3.805,1.18,7.623,1.408,11.373
		c0.169,2.776,0.03,5.554-0.255,8.318c0.169-0.603,0.334-1.207,0.529-1.807c3.214-9.857,9.741-17.941,16.056-25.76L542.05,291.816z
		 M581.874,350.175c7.681-3.821,14.226-9.633,19.225-16.564c-11.019-0.679-22.431-0.252-32.35-4.987
		c-5.692-2.717-10.476-8.043-12.657-13.876c-1.508,2.312-2.968,4.666-4.215,7.068c-3.848,7.416-6.145,17.903-1.063,25.1
		C557.161,355.919,571.559,355.311,581.874,350.175z M633.582,358.125c-2.063-3.794-4.093-7.577-6.221-11.121
		c-1.203-2.003-2.417-4.021-4.005-5.735c-3.462-3.737-8.298-5.619-13.376-6.623c-9.696,23.864-27.697,43.86-49.843,56.993
		c10.086-0.385,20.296,2.977,29.979,6.37l20.215,7.083c1.63-0.242,3.247-0.541,4.847-0.904c-0.727-3.881-0.784-7.888-0.046-11.773
		c-1.486-8.122,0.172-16.853,4.93-23.627C623.414,364.019,628.202,360.358,633.582,358.125z"/>
	<path fill="#523336" d="M519.316,398.236c-3.448,0.483-6.957,0.791-10.422,1.073c-4.292-2.175-8.296-5.155-11.95-8.278
		c-7.247-6.194-14.03-13.288-22.765-17.103c-3.407-1.487-6.994-2.413-10.655-3.055c1.714-4.838,2.649-9.905,2.801-15.018
		c4.169-0.214,8.295-0.967,12.301-2.151c0.709,7.503,1.722,14.974,6.947,18.806c5.943,4.361,14.99,1.43,19.719-4.049
		c5.6-6.49,7.009-15.716,7.612-23.031c0.167-1.997,0.285-4.009,0.406-6.018c0.415-6.911,0.844-14.059,3.072-20.898
		c3.214-9.857,9.741-17.941,16.056-25.76l0.758-0.94c5.686-7.049,10.997-14.053,13.691-21.879c5.154,0.601,10.219,1.57,14.946,3.664
		c0.114,0.05,0.218,0.119,0.331,0.17c0.524,7.644-0.646,15.397-3.763,22.503c-2.314,5.271-5.513,10.027-8.609,14.626
		c-2.372,3.522-4.822,7.168-6.767,10.914c-3.848,7.416-6.145,17.903-1.063,25.1c6.346,9.004,20.745,8.395,31.06,3.26
		c7.84-3.9,14.497-9.872,19.532-16.994c2.977,0.139,5.954,0.264,8.908,0.453c-5.054,12.678-12.516,24.381-22.099,34.209
		C563.351,384.258,542.027,395.054,519.316,398.236z M350.594,1111.572l-28.878-76.154l-3.545-9.348
		c-4.021-10.603-10.945-36.185-18.872-68.755c-6.998-28.752-14.779-62.949-22.036-97.097c3.331-7.513,8.033-14.31,14.335-19.577
		c0.806-0.673,1.643-1.299,2.485-1.918c7.475-5.491,16.281-9,24.632-13.132c9.293-4.596,18.555-10.492,23.485-19.612
		s3.91-22.148-4.66-27.982c1.519,12.436-11.245,22.089-23.413,25.072c-12.167,2.984-25.424,2.377-36.495,8.241
		c-3.464,1.835-6.447,4.345-8.948,7.28c-8.935-44.866-15.928-85.505-17.76-108.354c-0.399-4.985-0.557-9.138-0.431-12.287
		c0.023-0.572,0.065-1.152,0.096-1.728c0.788-14.477,4.22-30.141,10.411-44.868c5.972-14.207,14.513-27.521,25.696-38.044
		c8.541-8.037,18.612-14.454,30.283-18.363c3.038-1.017,6.283-1.911,9.419-2.773c0.313-0.086,0.63-0.176,0.944-0.263
		c9.973-2.751,20.172-5.733,27.45-13.537c6.727-7.208,9.251-16.797,11.693-26.071c1.611-6.115,3.185-11.993,5.832-17.03
		c1.41-2.684,3.11-5.14,5.316-7.24c6.268-5.969,15.024-7.851,24.299-9.845c6.877-1.479,13.992-3.009,20.353-6.335
		c7.549-3.946,13.172-9.915,17.974-16.622c-3.659-1.41-7.032-3.563-9.744-6.397c-2.526-2.639-4.459-5.737-6.328-8.889
		c-6.551,4.149-13.726,7.561-21.353,10.001c-3.683,1.176-7.606,2.147-11.399,3.084c-10.096,2.493-20.535,5.072-28.815,11.958
		c-7.972,6.629-12.376,15.958-16.635,24.982c-0.836,1.77-1.693,3.557-2.569,5.334c-1.522,3.084-3.125,6.128-4.938,8.929
		c-9.874,15.24-26.665,25.186-42.905,34.807c-1.109,0.656-2.561,1.656-4.18,2.738c-7.034,4.704-17.207,10.981-15.94-2.451
		c0.053-0.561,0.237-1.185,0.475-1.835c2.569-7.006,15.016-18.608,18.813-23.466c7.032-8.997,14.232-18.273,21.253-27.594
		c1.174-1.559,2.381-3.104,3.541-4.665l1.283-1.732c6.934-9.347,14.102-19.016,23.457-25.685
		c10.269-7.329,23.013-10.94,35.34-14.433l1.502-0.427c9.936-2.822,21.824-6.746,33.328-12.674c-2.672-2.273-5.755-3.915-9.227-4.2
		c-6.745-0.554-13.293,4.06-19.946,2.822c-4.524-0.842-7.77-4.072-10.28-8.053l-64.606,28.475
		c-4.565,2.012-12.716,4.758-16.073,0.559c-2.85-3.568-0.012-9.86,4.11-13.966c0.873-0.87,1.793-1.729,2.718-2.591
		c4.242-3.963,9.053-8.456,10.047-14.871c0.997-6.436-2.115-11.857-5.121-17.099c-1.329-2.314-2.582-4.499-3.47-6.727
		c-3.046-7.658-2.038-17.506,2.997-29.265c1.239-2.894,2.643-5.822,3.997-8.652c3.332-6.949,6.776-14.137,8.393-21.958
		c0.353-1.711,0.581-3.503,0.7-5.329c-0.477-0.171-0.957-0.33-1.426-0.528c-5.004-2.111-9.447-6.195-11.153-11.224
		c-0.318,0.466-0.651,0.92-0.977,1.38c0.76,12.447-1.646,25.158-7.097,36.305c-2.879,5.882-5.897,9.416-9.491,11.122
		c-0.829,0.394-1.763,0.642-2.724,0.77c-3.198,0.426-6.732-0.629-8.024-3.338c-1.159-2.427-0.533-5.588,0.13-8.934
		c0.133-0.669,0.262-1.334,0.38-1.992c0.389-2.185,0.584-4.389,0.629-6.591c0.032-1.548-0.018-3.094-0.148-4.634
		c-7.294,3.13-15.2,4.473-22.871,3.081c-1.341,6.348-2.416,12.87-1.289,19.505c1.337,7.859,5.525,14.54,9.577,20.999
		c1.623,2.582,3.297,5.254,4.721,7.911c4.199,7.833,6.802,19.321,0.308,25.91c-5.675,5.773-16.036,4.228-21.771-0.764
		c-5.637-4.9-9.099-13.243-9.747-23.486c-0.349-5.536,0.026-11.012,0.424-16.808c0.093-1.352,0.179-2.732,0.263-4.11
		c-2.722,2.474-5.75,4.606-9.029,6.288c-4.276,2.194-8.999,3.566-13.789,4.092c-0.05,0.262-0.113,0.523-0.161,0.786
		c-3.332,18.059-0.447,33.585,8.119,43.715c6.061,7.168,14.676,11.603,23.008,15.895c10.6,5.456,20.613,10.612,24.057,20.682
		c3.75,10.963-2.147,22.887-8.511,34.161l-18.51,32.806l-1.765,3.128l-5.454,9.666c-8.067,14.298-19.114,33.879-16.736,54.001
		l0.007,0.057l0.212,1.64c0.375,2.793,0.732,5.433-0.147,7.514c-0.928,2.193-3.124,2.948-4.352,3.205
		c-2.862,0.588-6.087-0.245-8.021-2.087c-3.336-3.179-4.671-8.719-3.712-14.968c0.063-0.413,0.107-0.819,0.19-1.238
		c0.735-3.66,2.046-7.171,3.435-10.888c0.983-2.628,1.997-5.343,2.796-8.136c4.43-15.448,1.827-32.706-6.963-46.162
		c-0.732-1.124-1.516-2.242-2.303-3.363c-2.96-4.219-5.753-8.205-5.94-12.635c-0.107-2.551,0.686-4.861,1.98-6.932
		c3.547-5.677,10.969-9.503,14.753-11.159l2.435-1.052c8.698-3.735,18.558-7.969,22.696-17.281
		c3.597-8.096,1.747-18.514-4.954-27.87c-3.041-4.245-6.686-7.954-10.208-11.543c-2.626-2.672-5.34-5.433-7.695-8.326
		c-10.148-12.457-14.51-29.078-12.656-44.936c-1.893-0.594-3.752-1.299-5.509-2.258c-3.503-1.91-6.56-4.628-8.983-7.818
		c-1.525,3.165-2.604,6.647-3.085,10.325c-1.484,11.335,2.064,22.656,5.732,32.233c0.677,1.77,1.375,3.536,2.075,5.303
		c3.084,7.793,6.274,15.851,7.367,24.074c1.453,10.929-1.421,20.869-7.689,26.596c-3.585,3.274-8.978,4.974-14.047,4.436
		c-4.081-0.432-7.459-2.26-9.511-5.139c-4.565-6.407-2.441-15.488-0.386-24.273l0.562-2.424c3.799-16.667,3.819-34.288,0.066-50.958
		c-1.81-8.044-4.496-15.909-7.096-23.518c-2.199-6.439-4.473-13.099-6.165-19.739c-1.439-5.659-2.275-10.974-2.613-15.992
		c-0.108,0.247-0.213,0.498-0.323,0.744c-2.971,6.651-6.977,13.44-12.525,17.898c-0.414,14.186,1.814,28.444,6.818,41.702
		c1.063,2.816,2.251,5.617,3.438,8.419c3.614,8.522,7.026,16.572,7.087,25.163c0.046,6.387-3.087,13.367-7.796,17.373
		c-2.234,1.899-5.859,4-10.399,3.228c-7.767-1.317-12.658-9.586-16.632-17.235l-5.013-9.655c-5.76,5.182-11.792,10.143-18.81,13.275
		c1.297,4.09,2.972,8.087,5.153,12.084c4.026,7.381,8.94,14.272,13.693,20.935c1.468,2.056,2.951,4.148,4.418,6.257
		c2.164,3.109,4.289,6.265,6.24,9.468c8.963,14.724,14.825,30.931,19.44,47.504c-1.806-1.191-3.634-2.336-5.48-3.405
		c-17.63-10.203-37.368-16.63-54.197-28.104c-11.401-7.773-20.984-17.932-28.465-29.487v51.227
		c14.186,16.866,33.178,29.735,52.12,41.41c11.181,6.891,22.592,13.655,33.467,21.059c6.021,4.099,11.883,8.388,17.438,13.02
		l2.384,11.37c-2.097,9.221-0.55,24.174,1.252,37.263c1.253,9.104,2.628,17.315,2.992,22.035c0.085,1.383,0.172,2.771,0.259,4.158
		c0.318,5.095,0.651,10.208,1.02,15.331c1.92,26.624,4.857,53.45,11.925,78.741c0.894,3.2,1.832,6.384,2.866,9.531
		c-0.05,0.86-0.099,1.721-0.148,2.581c-7.151-4.477-13.575-10.134-18.978-16.625c-7.681-9.228-13.285-20.156-15.843-31.906
		c-3.335-15.321-2.264-32.473-11.57-45.093c-1.872-2.539-4.089-4.729-6.476-6.748c-6.04-5.108-13.282-9.006-19.619-13.861
		c-2.463-1.887-4.825-4.115-6.892-6.565c-5.354-6.343-8.672-14.22-6.204-21.867c-4.203,5.269-5.653,12.025-5.183,18.813
		c0.138,1.976,0.435,3.951,0.88,5.897c0.587,2.564,1.411,5.073,2.454,7.44c4.552,10.33,12.36,18.799,19.272,27.723
		c6.913,8.924,13.227,19.042,13.892,30.31c0.455,7.727-2.61,15.979-8.158,21.074c-11.224-5.68-22.253-11.69-32.722-18.665
		c-6.019-4.011-11.848-8.496-17.378-13.339c-4.43-3.879-8.661-7.988-12.574-12.349c-0.153-0.171-0.324-0.327-0.476-0.499v63.94
		c0.154,0.152,0.321,0.29,0.476,0.441c6.042,5.878,12.771,11.05,20.17,15.248c30.652,17.393,69.644,19.97,95.369,44.059
		c2.31,2.163,4.435,4.463,6.444,6.85c-2.293,39.962-4.586,79.924-6.879,119.885c-0.563,9.804-1.125,19.608-1.688,29.412
		c-1.729,30.13-3.372,61.016,5.504,89.861c2.621,8.517,6.189,16.722,10.56,24.478c0.036,0.062,0.066,0.128,0.102,0.19h166.017
		c0.009-0.063,0.007-0.127,0.014-0.19C355.491,1125.461,353.254,1118.583,350.594,1111.572z"/>
	<path fill="#005530" d="M321.716,1035.417c6.671,0.461,13.395,1.5,20.347,5.372c16.619,9.267,14.793,35.645,34.308,41.693
		c24.263,7.521,44.065-8.098,65.832,17.852c7.788,9.285,12.842,20.265,15.524,31.913h13.317c4.834-10.178,7.778-21.223,8.305-32.507
		c11.573,16.828,36.456,22.774,54.387,12.996c17.931-9.777,26.409-33.915,18.532-52.758c-7.878-18.843-31.013-29.764-50.567-23.87
		c5.319-18.425-3.663-39.96-20.499-49.144c-16.836-9.184-39.804-5.08-52.417,9.366c-23.992-37.918-82.493-47.916-117.717-20.118
		c-2.285-7.156-6.429-13.626-11.767-18.9c7.927,32.57,14.851,58.152,18.872,68.755L321.716,1035.417z M73.07,868.059
		c13.314-3.004,22.605-13.36,37.458-9.201c35.953,10.067,31.721,43.765,28.177,73.488c-1.364,11.442-7.998,32.779-2.193,43.709
		c6.895,12.984,22.322,13.16,37.612,12.443c2.293-39.962,4.585-79.924,6.879-119.885c-2.01-2.387-4.134-4.688-6.444-6.85
		c-25.725-24.089-64.718-26.666-95.369-44.059c-7.399-4.198-14.128-9.37-20.17-15.248v66.773
		C63.167,869.526,67.683,869.274,73.07,868.059z M460.012,1150c0.012-0.014,0.022-0.03,0.032-0.044h-0.035
		C460.01,1149.97,460.012,1149.985,460.012,1150z M1131.847,1051.276c-32.804-21.128-83.541-2.637-95.058,34.643
		c-17.433-27.677-54.145-41.535-85.518-32.281c-31.373,9.254-54.688,40.818-54.31,73.525c-20.834-31.8-67.944-40.401-100.596-22.557
		c-4.784,6.541-8.363,14.024-10.531,22.482c-0.07,0.519-0.189,1.027-0.358,1.526c-0.274,1.183-0.484,2.412-0.705,3.633h232.249
		c1.933-2.207,4.167-4.166,6.882-5.73c13.281-7.65,21.987-3.878,27.377,5.435c3.236-0.239,6.427-0.634,9.568-1.181
		c0.001-0.001,0.003-0.001,0.004-0.001c1.566-0.273,3.119-0.583,4.658-0.931c0.01-0.002,0.02-0.005,0.03-0.007
		c1.538-0.347,3.062-0.731,4.572-1.15c11.433-21.81,24.857-44.973,47.674-48.962c4.384-0.766,8.746-0.97,13.05-0.724
		c3.352-6.561,5.98-13.549,7.787-20.856c0.066-0.266,0.122-0.535,0.185-0.801c0.346-1.45,0.657-2.913,0.937-4.388
		c0.091-0.483,0.175-0.968,0.26-1.453c0.223-1.286,0.417-2.582,0.589-3.885c0.075-0.567,0.152-1.133,0.217-1.703
		c0.148-1.295,0.259-2.601,0.355-3.911c0.04-0.539,0.093-1.074,0.123-1.616c0.104-1.83,0.167-3.671,0.167-5.526v-8.032
		C1136.074,1033.833,1132.55,1042.105,1131.847,1051.276z M143.499,220.157c10.63,3.78,24.369,3.268,30.861,12.457
		c1.847,2.615,2.694,5.69,2.739,8.834c0.209-0.136,0.423-0.271,0.628-0.407c9.264-6.133,19.13-12.779,30.239-12.741
		c11.11,0.037,22.749,10.493,19.36,21.074c-3.111,9.711-16.622,14.259-17.366,24.429c-1.123,15.35,27.264,20.71,25.126,35.951
		c-0.881,6.287-7.295,10.547-13.59,11.366c-6.295,0.819-12.597-0.933-18.825-2.162c-37.195-7.338-83.143,4.322-103.649,38.292
		c-0.699,7.672,0.212,15.425,3.75,22.198c5.178,9.913,16.903,16.848,27.727,14.034c3.199-0.832,6.033-2.374,8.55-4.397
		c5.548-4.458,9.554-11.247,12.525-17.898c0.11-0.246,0.215-0.497,0.323-0.744c4.17-9.466,7.639-19.701,15.312-26.602
		c1.409-1.268,3.031-2.343,4.768-3.215c7.267-3.654,16.624-3.616,21.776,1.984c0.491,0.534,0.954,1.104,1.363,1.741
		c4.316,6.72,1.793,15.736-2.248,22.626c-4.041,6.889-9.549,13.175-11.37,20.951c-1.755,7.498,0.513,15.438,5.188,21.592
		c2.422,3.189,5.48,5.908,8.983,7.818c1.757,0.958,3.616,1.664,5.509,2.258c4.617,1.448,9.532,1.854,14.4,1.319
		c4.79-0.526,9.513-1.897,13.789-4.092c3.279-1.683,6.307-3.815,9.029-6.288c8.382-7.618,13.824-18.517,14.459-29.85
		c1.012,0.285,2.032,0.508,3.055,0.694c7.671,1.392,15.578,0.048,22.871-3.081c5.883-2.525,11.37-6.199,15.993-10.567
		c3.89-3.675,7.272-7.786,10.35-12.141c0.326-0.46,0.659-0.914,0.977-1.38c1.706,5.029,6.149,9.113,11.153,11.224
		c0.469,0.198,0.949,0.357,1.426,0.528c5.794,2.081,12.126,2.301,18.31,2.464c-4.665,10.654-19.085,13.544-25.368,23.332
		c-6.202,9.663-1.624,23.857,8.221,29.765c9.846,5.908,23.065,4.212,32.504-2.326c2.719-1.883,5.22-4.141,7.685-6.441
		c-0.537,5.96,1.561,12.714,3.837,18.496c2.24,5.693,4.479,11.386,6.72,17.079c1.195,3.039,2.618,6.23,4.4,9.055
		c2.51,3.981,5.756,7.211,10.28,8.053c6.653,1.238,13.201-3.376,19.946-2.822c3.471,0.285,6.555,1.928,9.227,4.2
		c2.149,1.828,4.038,4.056,5.606,6.378c1.473,2.182,2.791,4.479,4.139,6.751c1.87,3.152,3.802,6.25,6.328,8.889
		c2.713,2.834,6.085,4.987,9.744,6.397c4.148,1.598,8.668,2.234,13.077,1.666c8.302-1.069,15.969-6.266,20.036-13.581
		c2.012-3.619,3.453-7.995,7.114-9.928c4.882-2.579,10.927,0.747,14.421,5.022c3.494,4.276,5.768,9.606,10.038,13.106
		c5.285,4.333,12.631,5.049,19.462,4.808c13.948-0.492,27.77-4.247,40.049-10.881c3.423-1.849,6.825-4.008,9.044-7.205
		c4.807-6.925,2.755-16.264,1.067-24.523c-1.561-7.629-2.078-16.698,2.953-22.288c0.415-0.461,0.794-0.945,1.288-1.355
		c4.451-3.696,10.742-3.816,16.52-2.657c0.77,0.155,1.534,0.328,2.28,0.523c6.343,1.655,12.601,4.358,19.151,4.045
		c5.693-0.272,11.743-3.916,13.096-9.168c1.299,8.196-0.291,17.425,5.418,23.223c4.856,4.931,12.99,4.771,19.484,2.378
		c6.495-2.393,12.213-6.589,18.733-8.913c17.104-6.096,35.619,1.579,53.485,4.826c20.338,3.696,41.721,1.44,60.839-6.421
		c3.056-1.256,6.333-2.938,7.497-6.03c1.46-3.878-1.316-8.351-5.078-10.09s-8.134-1.39-12.216-0.681
		c-12.835,2.228-26.884,7.449-38.12,0.858c-7.746-4.543-11.291-13.068-14.781-21.635c-1.404,2.16-2.706,4.458-4.168,6.488
		c-7.744,10.749-23.467,14.838-35.467,9.223c-10.504-4.915-16.305-14.69-22.651-23.804c-5.085-7.302-13.397-10.096-18.621-16.865
		c-3.994-5.176-7.356-11.227-10.629-17.247c-5.38,2.232-10.168,5.894-13.519,10.664c-6.307,8.978-7.189,21.383-2.441,31.255
		c0.213,0.443,0.372,0.91,0.608,1.342c1.755,3.213,4.075,6.124,6.186,9.128c0.367,0.523,0.736,1.045,1.086,1.576
		c-0.492-0.397-1.002-0.782-1.543-1.142c-2.708-1.805-5.945-3.164-8.944-4.215c-2.625-0.92-5.25-1.84-7.875-2.759
		c-5.675-1.988-11.35-3.977-17.024-5.965c-11.887-4.165-24.571-8.385-36.841-5.536c-10.647,2.473-20.011,10.118-30.94,10.269
		c-4.725,0.065-9.223-1.295-13.442-3.434c-4.292-2.175-8.296-5.155-11.95-8.278c-7.247-6.194-14.03-13.288-22.765-17.103
		c-3.407-1.487-6.994-2.413-10.655-3.055c-3.969-0.696-8.023-1.058-12.037-1.401c-7.432-0.634-20.538-3.601-32.845-4.465
		c-0.847-4.592-2.507-9.293-4.808-13.794c-5.662-11.075-15.103-20.853-25.452-24.234c-18.681-6.105-46.126-3.292-63.999,3.131
		c-7.289,2.619-14.995,7.463-17.871,14.149c-3.876-6.202-5.988-13.446-5.516-20.735c0.834-12.885,10.432-25.087,23.076-27.704
		c7.948-1.645,17.782-0.352,22.625-6.864c4.511-6.065,1.262-14.725-2.882-21.047c-4.143-6.322-9.331-13.04-8.283-20.526
		c1.3-9.286,11.671-14.522,21.01-15.356c9.339-0.833,18.941,1.084,28.027-1.232s17.667-11.472,14.516-20.302
		c-3.27-9.163-15.895-10.855-21.915-18.499c-3.95-5.017-4.38-12.525-1.029-17.961c1.555-2.522,3.89-4.486,6.555-5.772
		c-9.009-1.727-18.28-2.518-27.435-3.121c-17.325-1.141-35.011-1.91-51.253-8.048c-18.893-7.141-37.363-21.603-56.966-16.738
		c-2.479,0.615-4.807,1.532-7.041,2.638c-13.795,6.826-23.619,21.643-38.035,28.047c-9.873,4.386-21.029,4.436-31.813,5.077
		c-10.784,0.641-22.139,2.183-30.65,8.838c-5.562,4.349-9.223,11.561-9.26,18.419C136.452,206.335,141.176,211.599,143.499,220.157z
		 M619.019,165.822c-4.405,2.911-7.091,7.905-11.464,10.862c-8.466,5.725-19.764,2.134-29.984,2.131
		c-7.436-0.002-14.644,2.07-21.275,5.464c-5.773,2.955-11.11,6.909-15.763,11.411c-9.996,9.673-17.324,21.709-24.54,33.601
		l-12.051,7.519c-5.186,7.463-1.581,18.461,5.532,24.118c2.169,1.725,4.575,3.032,7.105,4.087
		c5.767,2.404,12.249,3.349,18.543,3.884c3.904,0.332,7.859,0.582,11.765,1.037c5.154,0.601,10.219,1.57,14.946,3.664
		c0.114,0.05,0.218,0.119,0.331,0.17c8.263,3.766,14.773,10.528,22.195,15.766c7.157-1.623,14.253-4.778,16.602-11.457
		c1.8-5.118,0.156-10.712-0.35-16.113c-1.141-12.19,4.069-24.802,13.484-32.63c9.414-7.828,22.765-10.651,34.542-7.304
		c7.775,2.21,14.811,6.875,22.206,10.039c0.44-4.115,0.434-8.265-0.161-12.399c-1.612-11.21-7.239-21.382-12.767-31.266
		c-3.693-6.606-7.549-13.371-13.136-18.396c-0.666-0.599-1.345-1.188-2.064-1.734C635.969,163.151,626.087,161.151,619.019,165.822z
		"/>
	<path fill="#67B66A" d="M1125.492,817.185c5.979,9.07,11.138,18.667,15.49,28.618v108.884l0,0v-13.149
		c-17.117-17.165-38.52-30.243-60.46-37.446c-51.247-16.825-106.571-13.014-160.505-13.741
		c-53.934-0.728-111.146-7.466-153.501-40.864c-4.716-3.718-9.173-7.581-13.481-11.52c1.671-14.614,6.88-28.721,14.404-38.176
		c1.265,2.589,14.727,33.02,13.412,33.985c13.027-9.565,18.476-28.228,12.642-43.299c11.744,8.545,18.978,22.336,20.703,36.716
		c1.725,0.725,3.082,2.258,3.456,4.829c0.504,3.459,0.66,6.855,0.576,10.212c3.845-6.266,7.691-12.532,11.537-18.798
		c2.926,14.047,5.853,28.094,8.779,42.14c3.484-24.865,19.265-47.703,41.291-59.755c-9.978,16.916-8.603,39.826,3.327,55.427
		c12.306-10.451,19.637-26.521,19.466-42.665c3.709,15.327,7.419,30.654,11.129,45.981c9.789-15.216,19.579-30.432,29.368-45.649
		c-6.251,15.027-4.136,33.233,5.395,46.426c16.374-17.28,25.821-40.948,25.849-64.754c25.031,11.066,34.186,47.547,17.344,69.12
		c14.602-9.835,29.203-19.67,43.805-29.505c-7.113,11.702-9.984,25.922-7.97,39.468c22.167-12.561,35.168-39.56,31.167-64.723
		c17.308,13.355,22.651,39.951,11.842,58.954c8.011-15.762,23.508-27.508,40.848-30.961c-7.694,9.249-11.037,21.971-8.882,33.808
		C1117.022,860.537,1125.353,838.935,1125.492,817.185z M1081.499,1124.757c0.001,0,0.001-0.001,0.001-0.001
		c-11.658,4.945-24.47,7.682-37.91,7.682l0,0C1057.03,1132.439,1069.842,1129.702,1081.499,1124.757z M1140.981,983.146
		C1140.981,983.146,1140.981,983.146,1140.981,983.146v-7.77l0,0V983.146z M465.228,622.063
		c-46.012-5.114-91.915-17.244-137.885-30.152c-0.314,0.087-0.63,0.176-0.944,0.263c-3.136,0.862-6.381,1.755-9.419,2.773
		c-11.672,3.909-21.742,10.326-30.283,18.363c21.479,23.078,40.136,48.758,55.34,76.376c48.023,22.996,98.755,43.818,151.987,44.852
		c54.202,1.053,111.355-5.942,160.383,17.192c14.51,6.847,26.742,15.597,37.929,25.357c12.058-36.26,47.771-62.396,85.086-73.596
		c41.309-12.399,85.303-10.565,128.379-12.735c43.075-2.169,88.235-9.403,121.958-36.291c10.377-8.274,19.311-18.144,28.496-27.75
		c5.322-5.566,10.729-11.043,16.549-16.069c1.217-1.051,2.461-2.053,3.724-3.012l0,0c-81.715-13.55-164.328-10.04-247.231-2.546
		c-58.451,5.284-117.044,12.518-175.566,17.109C590.724,627.14,527.8,629.018,465.228,622.063z M275.452,579.327
		c-1.267,13.432,8.906,7.155,15.94,2.451c-5.153-1.444-10.308-2.872-15.465-4.286C275.689,578.142,275.505,578.766,275.452,579.327z
		 M241.814,572.086l1.765-3.128c-2.883-0.723-5.767-1.429-8.651-2.127C237.241,568.56,239.539,570.306,241.814,572.086z
		 M432.277,350.903c9.365,1.065,18.422,4.248,27.823,4.922c2.074,0.149,4.151,0.137,6.225,0.031
		c4.169-0.214,8.295-0.967,12.301-2.151c8.306-2.456,16.046-6.848,22.206-12.942c10.609-10.494,16.409-25.67,15.503-40.565
		c-0.703-11.565-5.108-23.766-0.234-34.278c0.146-0.313,0.32-0.602,0.478-0.904c-2.53-1.055-4.936-2.362-7.105-4.087
		c-7.113-5.657-10.718-16.656-5.532-24.118l12.051-7.519c7.216-11.892,14.544-23.928,24.54-33.601
		c4.653-4.502,9.991-8.456,15.763-11.411c-14.37-10.615-39.68,13.788-56.589,9.14c-8.712-2.395-16.067-11.298-14.07-20.11
		c2.258-9.962,14.816-16.099,14.554-26.31c-0.168-6.53-6.033-11.787-12.348-13.458s-12.991-0.574-19.429,0.531
		c-10.47,1.798-20.94,3.595-31.41,5.392c-7.644,1.312-15.287,2.624-22.931,3.937c-6.347,1.089-13.005,2.317-17.985,6.4
		c-4.979,4.083-7.419,12.024-3.439,17.086c-3.354-0.684-6.877-0.111-9.955,1.375c-2.664,1.287-5,3.25-6.555,5.772
		c-3.351,5.435-2.921,12.944,1.029,17.961c6.019,7.644,18.644,9.336,21.915,18.499c3.151,8.831-5.431,17.986-14.516,20.302
		s-18.688,0.399-28.027,1.232c-9.339,0.833-19.71,6.07-21.01,15.356c-1.048,7.486,4.14,14.203,8.283,20.526
		c4.144,6.322,7.393,14.982,2.882,21.047c-4.843,6.512-14.677,5.219-22.625,6.864c-12.644,2.617-22.242,14.819-23.076,27.704
		c-0.473,7.289,1.64,14.534,5.516,20.735c2.876-6.686,10.582-11.53,17.871-14.149c17.873-6.423,45.318-9.236,63.999-3.131
		c10.349,3.382,19.79,13.159,25.452,24.234C419.954,350.431,426.1,350.201,432.277,350.903z M614.094,229.337
		c-9.414,7.828-14.625,20.439-13.484,32.63c0.507,5.402,2.15,10.995,0.35,16.113c-2.349,6.679-9.445,9.834-16.602,11.457
		c-1.421,0.322-2.842,0.607-4.231,0.822c-8.387,1.297-17.919,2.629-22.774,9.588c-6.701,9.606,0.826,23.632,11.395,28.677
		c7.367,3.516,15.562,4.171,23.804,4.556c2.977,0.139,5.954,0.264,8.908,0.453c0.601,0.038,1.206,0.066,1.805,0.112
		c7.304,0.568,15.113,2.15,20.092,7.524c1.587,1.714,2.802,3.732,4.005,5.735c2.128,3.544,4.157,7.326,6.221,11.121
		c3.273,6.021,6.635,12.072,10.629,17.247c5.224,6.769,13.536,9.563,18.621,16.865c6.346,9.113,12.147,18.889,22.651,23.804
		c11.999,5.614,27.723,1.526,35.467-9.223c1.463-2.03,2.765-4.327,4.168-6.488c2.216-3.411,4.691-6.473,8.493-7.545
		c11.126-3.135,18.565,13.575,30.065,14.734c8.034,0.81,14.778-6.538,17.318-14.202c2.541-7.664,2.332-15.989,4.475-23.774
		c2.698-9.802,9.01-18.346,11.435-28.219c4.244-17.271-5.643-36.902-22.046-43.774c-7.938-3.326-16.725-3.836-25.142-5.632
		c-8.417-1.796-17.14-5.383-21.642-12.718c-4.044-6.589-3.882-14.797-4.443-22.508c-0.561-7.711-2.515-16.233-8.975-20.48
		c-9.061-5.957-21.066-0.269-31.886-0.984c-4.176-0.276-8.099-1.519-11.928-3.157c-7.395-3.164-14.431-7.829-22.206-10.039
		C636.86,218.686,623.509,221.509,614.094,229.337z M69.329,469.461c7.322,6.047,18.205,6.068,27.015,2.525
		c0.476-0.191,0.93-0.424,1.397-0.632c7.018-3.132,13.05-8.093,18.81-13.275c0.95-0.855,1.895-1.714,2.835-2.572
		c7.009-6.399,14.696-15.074,11.832-24.122c-3.096-9.783-15.684-11.84-24.452-17.17c-15.936-9.688-19.288-32.854-11.525-49.811
		c1.138-2.487,2.404-4.871,3.782-7.155c20.507-33.971,66.454-45.631,103.649-38.292c6.228,1.229,12.53,2.981,18.825,2.162
		c6.295-0.819,12.708-5.079,13.59-11.366c2.138-15.241-26.248-20.602-25.126-35.951c0.744-10.17,14.255-14.718,17.366-24.429
		c3.389-10.58-8.25-21.036-19.36-21.074c-11.11-0.037-20.976,6.608-30.239,12.741c-0.205,0.136-0.419,0.271-0.628,0.407
		c-7.425,4.824-16.922,9.306-24.354,4.668c-5.536-3.455-7.335-10.639-7.795-17.148c-0.231-3.279-0.739-6.185-1.452-8.811
		c-2.323-8.558-7.047-13.822-13.256-16.783c-14.989-7.148-38.553-0.981-57.5,4.176c-4.755,1.294-9.628,2.923-14.2,5.03v165.567
		v71.702C61.056,457.223,63.481,464.632,69.329,469.461z"/>
</g>
</svg>
